<svg version="1" xmlns="http://www.w3.org/2000/svg" width="933.333" height="933.333" viewBox="0 0 700.000000 700.000000"><path d="M344 33.1c-8.1 5-286.7 204.4-289.2 207-3.9 4.1-3.9 9.7-.1 13.8 3 3.2 285.2 205 290.5 207.7 1.9 1 4.4 1.4 6.4 1.1 2.3-.4 47.3-32 148.3-104.1 79.7-57 145.7-104.6 146.5-105.8 2.6-3.6 2-9.3-1.1-12.7-2.6-2.6-281.2-202-289.3-207-4.4-2.7-7.6-2.7-12 0zm141.1 117.1c74.2 53 134.7 96.6 134.6 97-.4 1.3-268.2 192.2-269.7 192.2S80.7 248.5 80.3 247.2c-.2-.6 268.5-193.1 269.6-193.2.2 0 61.1 43.3 135.2 96.2z"/><path d="M54.9 342.9c-4 4-4.1 9.8-.1 14 2.6 2.8 282.4 202.9 289.7 207.2 2.5 1.5 4.6 2 6.9 1.6 2.2-.4 47.5-32.1 147.2-103.2 79.1-56.5 145.1-104 146.7-105.6 3.6-3.9 3.7-9.6.3-13.6-2-2.4-3.2-2.8-7.3-2.8-4.8.1-5.8.8-146.5 101.4L350 543.2l-139.3-99.5C134.1 389 69.9 343.3 68 342.1c-5-3-9.5-2.7-13.1.8z"/><path d="M55 445.8c-4.1 4.1-4.2 9.5-.2 13.9 3.5 4 289.5 208.1 292.7 208.9 1.4.3 3.6.3 5 0 2.9-.7 288.8-204.5 292.8-208.7 3.9-4.2 3.8-10-.3-14.1-6.4-6.4 3.4-12.7-153.2 99.2L350 646.2 208.3 545C51.6 433.1 61.4 439.4 55 445.8z"/></svg>